# xmcd
# 
# Track frame offsets:
#     150
#     17233
#     37042
#     60080
#     76775
#     83342
#     101998
#     116051
#     134908
#     157557
#     184524
#     201193
#     222140
#     230938
#     253166
#     269752
#     292559
#     314470
#     336382
# 
# Disc length: 4673
# 
# Revision: 6
# Processed by: cddbd v1.5.2PL0 Copyright (c) Steve Scherf et al.
# Submitted via: fre:ac v1.0.31
# 
DISCID=0f123f13
DTITLE=James Taylor - One Man Band
DYEAR=2007
DGENRE=Rock/Pop
TTITLE0=Something In The Way She Moves
TTITLE1=Never Die Young
TTITLE2=The Frozen Man
TTITLE3=Mean Old Man
TTITLE4=School Song
TTITLE5=Country Road
TTITLE6=Slap Leather
TTITLE7=My Traveling Star
TTITLE8=You've Got A Friend
TTITLE9=Steamroller Blues
TTITLE10=Secret O' Life
TTITLE11=Line 'Em Up
TTITLE12=Chili Dog
TTITLE13=Shower The People
TTITLE14=Sweet Baby James
TTITLE15=Carolina In My Mind
TTITLE16=Fire And Rain
TTITLE17=Copperline
TTITLE18=You Can Close Your Eyes
EXTD=
EXTT0=
EXTT1=
EXTT2=
EXTT3=
EXTT4=
EXTT5=
EXTT6=
EXTT7=
EXTT8=
EXTT9=
EXTT10=
EXTT11=
EXTT12=
EXTT13=
EXTT14=
EXTT15=
EXTT16=
EXTT17=
EXTT18=
PLAYORDER=
